<?xml version="1.0" encoding="utf-8"?>
<!-- Generator: Adobe Illustrator 16.0.0, SVG Export Plug-In . SVG Version: 6.00 Build 0)  -->
<!DOCTYPE svg PUBLIC "-//W3C//DTD SVG 1.1//EN" "http://www.w3.org/Graphics/SVG/1.1/DTD/svg11.dtd">
<svg version="1.1" id="Layer_1" xmlns="http://www.w3.org/2000/svg" xmlns:xlink="http://www.w3.org/1999/xlink" x="0px" y="0px"
	 width="40px" height="10px" viewBox="0 0 40 10" enable-background="new 0 0 40 10" xml:space="preserve">
<g id="oNjju6.tif">
	<g>
		<path fill-rule="evenodd" clip-rule="evenodd" fill="#2E97FB" d="M35.855,3.902c0.17-0.074,0.294-0.041,0.403,0.109
			c0.162,0.222,0.323,0.447,0.484,0.671c0.126,0.177,0.099,0.334-0.079,0.463C36.42,5.322,36.176,5.5,35.931,5.675
			c-1.54,1.112-3.081,2.225-4.622,3.34c-0.17,0.123-0.333,0.096-0.455-0.074c-0.159-0.219-0.317-0.438-0.476-0.658
			c-0.121-0.168-0.116-0.281,0.019-0.441c0.094-0.113,0.142-0.246,0.125-0.395c-0.048-0.418-0.48-0.623-0.838-0.402
			c-0.097,0.061-0.162,0.051-0.229-0.041c-0.193-0.268-0.386-0.533-0.577-0.801c-0.115-0.16-0.088-0.322,0.072-0.439
			c0.294-0.213,0.586-0.425,0.88-0.636c1.108-0.802,2.219-1.603,3.329-2.404c0.388-0.28,0.774-0.561,1.163-0.841
			c0.169-0.122,0.334-0.093,0.454,0.076c0.163,0.225,0.326,0.45,0.488,0.676c0.106,0.146,0.1,0.269-0.019,0.405
			c-0.09,0.105-0.14,0.225-0.14,0.364C35.108,3.794,35.5,4.054,35.855,3.902z M34.521,2.094c-0.075,0.053-0.147,0.104-0.218,0.155
			c-0.267,0.191-0.53,0.383-0.795,0.576c-0.023,0.017-0.042,0.052-0.047,0.081c-0.015,0.083-0.114,0.154-0.196,0.14
			c-0.029-0.004-0.064,0.001-0.087,0.017c-1.03,0.744-2.061,1.488-3.09,2.232c-0.311,0.224-0.621,0.447-0.932,0.671
			c-0.02,0.017-0.039,0.032-0.064,0.05c0.124,0.17,0.244,0.338,0.364,0.504c0.044,0.061,0.091,0.119,0.13,0.182
			c0.025,0.039,0.047,0.043,0.091,0.027c0.457-0.174,0.947,0.055,1.091,0.512c0.09,0.287,0.036,0.553-0.155,0.787
			c-0.025,0.029-0.033,0.049-0.008,0.084c0.161,0.221,0.32,0.443,0.481,0.664c0.006,0.006,0.016,0.014,0.026,0.027
			c0.166-0.119,0.33-0.238,0.496-0.357c1.104-0.799,2.21-1.598,3.315-2.396c0.093-0.067,0.187-0.133,0.277-0.202
			c0.017-0.012,0.033-0.033,0.037-0.053c0.016-0.114,0.096-0.174,0.209-0.153c0.017,0.003,0.039,0.002,0.052-0.009
			c0.344-0.246,0.686-0.494,1.035-0.746c-0.02-0.03-0.037-0.056-0.057-0.083c-0.146-0.201-0.292-0.404-0.438-0.608
			c-0.022-0.032-0.04-0.046-0.085-0.028c-0.373,0.144-0.763,0.028-0.988-0.29c-0.219-0.309-0.196-0.713,0.058-1.019
			c0.007-0.009,0.014-0.018,0.024-0.033C34.875,2.584,34.701,2.343,34.521,2.094z"/>
		<path fill-rule="evenodd" clip-rule="evenodd" fill="#2E97FB" d="M32.162,0.912c0.148,0.086,0.294,0.172,0.441,0.258
			c0.096,0.057,0.192,0.114,0.29,0.168c0.037,0.021,0.045,0.041,0.033,0.083c-0.065,0.22-0.041,0.434,0.069,0.636
			c0.033,0.062,0.085,0.091,0.156,0.079c0.062-0.01,0.103-0.05,0.113-0.11c0.005-0.032-0.003-0.071-0.017-0.1
			c-0.078-0.151-0.091-0.304-0.038-0.467c0.047-0.139-0.007-0.269-0.133-0.343c-0.255-0.151-0.51-0.301-0.768-0.449
			c-0.156-0.089-0.32-0.04-0.418,0.125c-0.356,0.61-0.712,1.221-1.069,1.832c-0.423,0.724-0.844,1.447-1.269,2.17
			c-0.009,0.017-0.018,0.033-0.026,0.05c-0.038,0.075-0.016,0.154,0.054,0.192c0.069,0.041,0.148,0.02,0.194-0.053
			c0.073-0.125,0.146-0.249,0.219-0.375c0.44-0.753,0.88-1.506,1.32-2.261c0.021-0.036,0.04-0.06,0.089-0.065
			c0.076-0.008,0.133-0.126,0.113-0.205c-0.007-0.024-0.01-0.057,0.002-0.077c0.203-0.352,0.409-0.702,0.615-1.051
			C32.141,0.938,32.148,0.928,32.162,0.912z"/>
		<path fill-rule="evenodd" clip-rule="evenodd" fill="#2E97FB" d="M28.783,6.689c0.018-0.035,0.036-0.064,0.05-0.096
			c0.027-0.059,0.01-0.131-0.04-0.17c-0.051-0.041-0.121-0.043-0.174-0.002c-0.13,0.098-0.16,0.312-0.063,0.443
			c0.019,0.023,0.042,0.049,0.07,0.064c0.146,0.088,0.292,0.174,0.439,0.258c0.057,0.033,0.113,0.029,0.163-0.012
			c0.048-0.037,0.065-0.09,0.045-0.143c-0.014-0.039-0.046-0.076-0.081-0.098c-0.117-0.074-0.236-0.143-0.355-0.211
			C28.82,6.715,28.804,6.703,28.783,6.689z"/>
		<path fill-rule="evenodd" clip-rule="evenodd" fill="#2E97FB" d="M31.703,2.455c0.012,0.014,0.03,0.05,0.061,0.069
			c0.082,0.056,0.17,0.105,0.258,0.153c0.068,0.038,0.119,0.017,0.166-0.061c0.049-0.083,0.046-0.139-0.021-0.182
			C32.08,2.38,31.992,2.328,31.902,2.28C31.81,2.231,31.699,2.316,31.703,2.455z"/>
		<path fill-rule="evenodd" clip-rule="evenodd" fill="#2E97FB" d="M32.397,2.833c-0.003,0.06,0.049,0.111,0.11,0.111
			c0.063,0,0.143-0.093,0.143-0.168c0-0.057-0.051-0.105-0.108-0.106C32.478,2.669,32.398,2.759,32.397,2.833z"/>
		<path fill-rule="evenodd" clip-rule="evenodd" fill="#2E97FB" d="M33.625,3.159c-0.052,0.043-0.104,0.075-0.14,0.119
			c-0.035,0.043-0.013,0.093,0.019,0.135c0.048,0.064,0.093,0.129,0.141,0.192c0.055,0.072,0.107,0.075,0.187,0.02
			c0.079-0.059,0.093-0.112,0.044-0.183c-0.047-0.07-0.095-0.14-0.147-0.205C33.704,3.209,33.668,3.191,33.625,3.159z"/>
		<path fill-rule="evenodd" clip-rule="evenodd" fill="#2E97FB" d="M34.798,5.164c-0.002,0.058,0.186,0.317,0.241,0.33
			c0.076,0.02,0.124-0.029,0.168-0.076c0.04-0.045,0.029-0.094-0.005-0.141c-0.049-0.068-0.097-0.137-0.146-0.204
			c-0.034-0.045-0.079-0.071-0.134-0.045C34.862,5.055,34.804,5.086,34.798,5.164z"/>
		<path fill-rule="evenodd" clip-rule="evenodd" fill="#2E97FB" d="M34.51,4.387c-0.052,0.042-0.105,0.072-0.14,0.117
			c-0.037,0.045-0.01,0.096,0.022,0.14c0.046,0.062,0.089,0.126,0.136,0.186c0.056,0.072,0.111,0.077,0.192,0.015
			c0.077-0.056,0.088-0.11,0.036-0.185c-0.047-0.068-0.096-0.137-0.148-0.203C34.587,4.432,34.552,4.417,34.51,4.387z"/>
		<path fill-rule="evenodd" clip-rule="evenodd" fill="#2E97FB" d="M34.19,4.294c0.052-0.042,0.104-0.074,0.141-0.119
			c0.034-0.042,0.011-0.092-0.021-0.134c-0.045-0.063-0.09-0.126-0.135-0.188c-0.057-0.075-0.109-0.081-0.191-0.022
			c-0.084,0.06-0.096,0.108-0.042,0.188c0.047,0.068,0.093,0.135,0.146,0.198C34.11,4.246,34.146,4.262,34.19,4.294z"/>
	</g>
</g>
<text transform="matrix(1 0 0 1 3.478 8.9355)"><tspan x="0" y="0" fill="#2E97FB" font-family="'PTMono-Bold'" font-size="4.6098">Ti</tspan><tspan x="4.979" y="0" fill="#2E97FB" font-family="'PTMono-Bold'" font-size="4.6098">c</tspan><tspan x="7.191" y="0" fill="#2E97FB" font-family="'PTMono-Bold'" font-size="4.6098">ke</tspan><tspan x="12.354" y="0" fill="#2E97FB" font-family="'PTMono-Bold'" font-size="4.6098">t</tspan><tspan x="14.659" y="0" fill="#2E97FB" font-family="'PTMono-Bold'" font-size="4.6098">.</tspan><tspan x="16.872" y="0" fill="#2E97FB" font-family="'PTMono-Bold'" font-size="4.6098">com</tspan></text>
</svg>
