<?xml version="1.0" encoding="utf-8"?>
<!-- Generator: Adobe Illustrator 16.0.0, SVG Export Plug-In . SVG Version: 6.00 Build 0)  -->
<!DOCTYPE svg PUBLIC "-//W3C//DTD SVG 1.1//EN" "http://www.w3.org/Graphics/SVG/1.1/DTD/svg11.dtd">
<svg version="1.1" id="Layer_1" xmlns="http://www.w3.org/2000/svg" xmlns:xlink="http://www.w3.org/1999/xlink" x="0px" y="0px"
	 width="40px" height="10px" viewBox="0 0 40 10" enable-background="new 0 0 40 10" xml:space="preserve">
<g>
	<g>
		<path fill="#FFFFFF" d="M22.611,1.409c-0.013-0.015-0.023-0.026-0.034-0.037c-0.304-0.305-0.608-0.609-0.913-0.913
			c-0.154-0.156-0.357-0.155-0.515,0.002c-1.986,1.985-3.972,3.971-5.957,5.958c-0.159,0.157-0.158,0.359,0.001,0.519
			c0.273,0.273,0.547,0.546,0.82,0.82c0.041,0.041,0.078,0.083,0.121,0.129C16.236,7.77,16.35,7.688,16.5,7.672
			c0.151-0.015,0.285,0.029,0.397,0.133c0.094,0.088,0.145,0.197,0.155,0.325c0.014,0.188-0.071,0.333-0.21,0.454
			c0.018,0.018,0.03,0.031,0.043,0.047c0.3,0.298,0.599,0.598,0.898,0.896c0.171,0.171,0.368,0.173,0.539,0.001
			c1.98-1.979,3.961-3.961,5.941-5.94c0.166-0.166,0.166-0.365,0-0.531c-0.303-0.303-0.604-0.606-0.908-0.909
			c-0.013-0.012-0.024-0.023-0.04-0.037c-0.102,0.115-0.217,0.196-0.369,0.208c-0.152,0.014-0.285-0.033-0.395-0.138
			c-0.091-0.088-0.14-0.196-0.149-0.323C22.389,1.672,22.473,1.528,22.611,1.409z"/>
		<path fill-rule="evenodd" clip-rule="evenodd" fill="#2E97FB" d="M22.611,1.409c-0.139,0.12-0.223,0.263-0.21,0.45
			c0.01,0.127,0.059,0.235,0.149,0.323c0.109,0.105,0.242,0.152,0.395,0.138c0.152-0.013,0.268-0.093,0.369-0.208
			c0.016,0.014,0.027,0.025,0.04,0.037c0.304,0.303,0.605,0.605,0.908,0.909c0.166,0.166,0.166,0.365,0,0.531
			c-1.979,1.979-3.961,3.96-5.941,5.94c-0.17,0.172-0.368,0.17-0.539-0.001c-0.299-0.299-0.598-0.599-0.898-0.896
			c-0.013-0.016-0.025-0.029-0.043-0.047c0.139-0.121,0.224-0.266,0.21-0.454c-0.01-0.128-0.061-0.237-0.155-0.325
			c-0.112-0.104-0.246-0.147-0.397-0.133c-0.15,0.016-0.264,0.098-0.366,0.215c-0.043-0.046-0.081-0.088-0.121-0.129
			c-0.273-0.274-0.547-0.547-0.82-0.82c-0.159-0.159-0.16-0.361-0.001-0.519c1.985-1.987,3.971-3.972,5.957-5.958
			c0.157-0.157,0.36-0.158,0.515-0.002c0.305,0.303,0.609,0.608,0.913,0.913C22.588,1.382,22.599,1.394,22.611,1.409z M22.35,1.41
			c-0.01-0.008-0.014-0.015-0.021-0.021c-0.265-0.266-0.531-0.533-0.797-0.798c-0.082-0.081-0.168-0.08-0.25,0.003
			c-1.985,1.985-3.97,3.971-5.955,5.955C15.24,6.636,15.24,6.72,15.327,6.807c0.248,0.247,0.496,0.495,0.743,0.743
			c0.023,0.022,0.042,0.05,0.061,0.074c0.351-0.24,0.712-0.136,0.905,0.053c0.182,0.179,0.317,0.539,0.071,0.907
			c0.012,0.013,0.025,0.026,0.039,0.039c0.257,0.258,0.515,0.516,0.772,0.773c0.098,0.098,0.174,0.098,0.271,0
			c0.579-0.579,1.158-1.158,1.736-1.736c1.403-1.402,2.805-2.805,4.208-4.208c0.09-0.09,0.089-0.171,0-0.261
			c-0.261-0.261-0.52-0.521-0.78-0.78c-0.013-0.013-0.027-0.025-0.04-0.037c-0.327,0.227-0.691,0.142-0.899-0.064
			C22.203,2.1,22.127,1.729,22.35,1.41z"/>
		<path fill-rule="evenodd" clip-rule="evenodd" fill="#FFFFFF" d="M22.35,1.41c-0.223,0.319-0.146,0.69,0.063,0.9
			c0.208,0.206,0.572,0.291,0.899,0.064c0.013,0.012,0.027,0.024,0.04,0.037c0.261,0.26,0.52,0.519,0.78,0.78
			c0.089,0.089,0.09,0.171,0,0.261c-1.402,1.403-2.805,2.805-4.208,4.208c-0.579,0.578-1.157,1.157-1.736,1.736
			c-0.098,0.098-0.174,0.098-0.271,0c-0.258-0.258-0.516-0.516-0.772-0.773c-0.013-0.013-0.027-0.026-0.039-0.039
			c0.246-0.368,0.111-0.729-0.071-0.907c-0.193-0.188-0.554-0.293-0.905-0.053C16.112,7.6,16.093,7.572,16.07,7.55
			c-0.247-0.248-0.495-0.496-0.743-0.743C15.24,6.72,15.24,6.636,15.326,6.549c1.985-1.984,3.97-3.97,5.955-5.955
			c0.082-0.083,0.168-0.084,0.25-0.003c0.266,0.266,0.532,0.532,0.797,0.798C22.336,1.395,22.34,1.401,22.35,1.41z M22.35,3.431
			c0.088,0.001,0.143-0.066,0.127-0.155c-0.016-0.083-0.094-0.162-0.178-0.177c-0.093-0.017-0.16,0.045-0.154,0.138
			C22.151,3.336,22.25,3.43,22.35,3.431z M22.689,3.508c-0.09-0.004-0.148,0.063-0.133,0.15c0.016,0.093,0.096,0.171,0.188,0.183
			c0.083,0.011,0.146-0.047,0.146-0.13C22.887,3.609,22.79,3.513,22.689,3.508z M23.174,4.253c0.076,0,0.127-0.051,0.127-0.128
			c0-0.1-0.096-0.2-0.198-0.206c-0.085-0.005-0.14,0.052-0.137,0.138C22.973,4.158,23.073,4.253,23.174,4.253z M21.245,2.072
			c0.001-0.106-0.104-0.211-0.211-0.209c-0.08,0.002-0.134,0.065-0.123,0.146c0.014,0.095,0.095,0.175,0.19,0.188
			C21.181,2.208,21.244,2.153,21.245,2.072z M21.527,2.609c0.086,0,0.141-0.065,0.127-0.152c-0.013-0.086-0.092-0.166-0.179-0.181
			c-0.093-0.016-0.161,0.046-0.153,0.14C21.331,2.515,21.43,2.607,21.527,2.609z M22.066,2.896c0.002-0.107-0.102-0.211-0.209-0.21
			c-0.082,0.001-0.135,0.064-0.124,0.145c0.013,0.094,0.095,0.176,0.187,0.189C22.002,3.031,22.066,2.976,22.066,2.896z M20.5,1.58
			c0,0.1,0.093,0.198,0.191,0.207c0.094,0.006,0.156-0.061,0.141-0.153c-0.014-0.086-0.095-0.166-0.181-0.18S20.5,1.495,20.5,1.58z"
			/>
		<path fill-rule="evenodd" clip-rule="evenodd" fill="#2E97FB" d="M22.35,3.431c-0.1-0.001-0.198-0.095-0.205-0.194
			c-0.006-0.093,0.062-0.155,0.154-0.138c0.084,0.015,0.162,0.094,0.178,0.177C22.492,3.364,22.438,3.432,22.35,3.431z"/>
		<path fill-rule="evenodd" clip-rule="evenodd" fill="#2E97FB" d="M22.689,3.508c0.101,0.004,0.197,0.101,0.201,0.203
			c0,0.083-0.063,0.142-0.146,0.13c-0.092-0.012-0.172-0.089-0.188-0.183C22.541,3.571,22.6,3.504,22.689,3.508z"/>
		<path fill-rule="evenodd" clip-rule="evenodd" fill="#2E97FB" d="M23.174,4.253c-0.101,0-0.201-0.095-0.208-0.196
			c-0.003-0.085,0.052-0.143,0.137-0.138c0.103,0.006,0.198,0.106,0.198,0.206C23.301,4.202,23.25,4.253,23.174,4.253z"/>
		<path fill-rule="evenodd" clip-rule="evenodd" fill="#2E97FB" d="M21.245,2.072c-0.001,0.081-0.064,0.136-0.144,0.125
			c-0.096-0.013-0.177-0.094-0.19-0.188c-0.011-0.081,0.043-0.144,0.123-0.146C21.141,1.861,21.246,1.966,21.245,2.072z"/>
		<path fill-rule="evenodd" clip-rule="evenodd" fill="#2E97FB" d="M21.527,2.609c-0.098-0.001-0.196-0.094-0.205-0.193
			c-0.008-0.094,0.061-0.156,0.153-0.14c0.087,0.015,0.166,0.094,0.179,0.181C21.668,2.544,21.613,2.609,21.527,2.609z"/>
		<path fill-rule="evenodd" clip-rule="evenodd" fill="#2E97FB" d="M22.066,2.896c0,0.08-0.064,0.135-0.146,0.124
			c-0.092-0.013-0.174-0.095-0.187-0.189c-0.011-0.081,0.042-0.144,0.124-0.145C21.965,2.685,22.068,2.788,22.066,2.896z"/>
		<path fill-rule="evenodd" clip-rule="evenodd" fill="#2E97FB" d="M20.5,1.58c0-0.084,0.065-0.14,0.151-0.126
			s0.167,0.093,0.181,0.18c0.016,0.092-0.047,0.159-0.141,0.153C20.593,1.778,20.5,1.68,20.5,1.58z"/>
	</g>
</g>
<g>
	<path fill="#2E97FB" stroke="#FFFFFF" stroke-width="0.3" stroke-miterlimit="10" d="M5.561,2.203v0.958h0.745v0.766H5.561v1.21
		c0,0.404,0.096,0.59,0.41,0.59c0.13,0,0.232-0.014,0.308-0.028l0.006,0.788C6.149,6.539,5.903,6.574,5.608,6.574
		c-0.335,0-0.616-0.116-0.779-0.287c-0.191-0.198-0.288-0.52-0.288-0.991V3.927H4.097V3.161h0.445V2.436L5.561,2.203z"/>
	<path fill="#2E97FB" stroke="#FFFFFF" stroke-width="0.3" stroke-miterlimit="10" d="M7.985,2.23c0,0.287-0.219,0.519-0.561,0.519
		c-0.329,0-0.548-0.232-0.541-0.519C6.876,1.929,7.096,1.704,7.431,1.704C7.766,1.704,7.979,1.929,7.985,2.23z M6.911,6.506V3.161
		H7.95v3.345H6.911z"/>
	<path fill="#2E97FB" stroke="#FFFFFF" stroke-width="0.3" stroke-miterlimit="10" d="M11.297,6.425
		c-0.184,0.081-0.533,0.149-0.93,0.149c-1.081,0-1.771-0.656-1.771-1.71c0-0.978,0.67-1.779,1.915-1.779
		c0.274,0,0.575,0.049,0.794,0.131L11.14,3.988c-0.123-0.055-0.307-0.103-0.581-0.103c-0.547,0-0.904,0.39-0.896,0.937
		c0,0.617,0.411,0.938,0.917,0.938c0.246,0,0.438-0.041,0.595-0.103L11.297,6.425z"/>
	<path fill="#2E97FB" stroke="#FFFFFF" stroke-width="0.3" stroke-miterlimit="10" d="M12.915,4.57h0.015
		c0.074-0.137,0.157-0.273,0.239-0.403l0.677-1.006h1.252l-1.199,1.355l1.369,1.99h-1.28l-0.807-1.375L12.915,5.46v1.046h-1.039
		V1.649h1.039V4.57z"/>
	<path fill="#2E97FB" stroke="#FFFFFF" stroke-width="0.3" stroke-miterlimit="10" d="M16.291,5.165
		C16.326,5.597,16.749,5.8,17.235,5.8c0.356,0,0.644-0.047,0.924-0.136l0.136,0.704c-0.343,0.138-0.759,0.206-1.211,0.206
		c-1.135,0-1.785-0.656-1.785-1.704c0-0.849,0.527-1.786,1.689-1.786c1.081,0,1.491,0.842,1.491,1.671
		c0,0.177-0.021,0.333-0.034,0.41H16.291z M17.515,4.454c0-0.254-0.109-0.678-0.587-0.678c-0.438,0-0.617,0.397-0.643,0.678H17.515z
		"/>
	<path fill="#2E97FB" stroke="#FFFFFF" stroke-width="0.3" stroke-miterlimit="10" d="M20.27,2.203v0.958h0.746v0.766H20.27v1.21
		c0,0.404,0.094,0.59,0.41,0.59c0.129,0,0.231-0.014,0.307-0.028l0.008,0.788c-0.137,0.053-0.384,0.088-0.676,0.088
		c-0.336,0-0.617-0.116-0.781-0.287c-0.192-0.198-0.287-0.52-0.287-0.991V3.927h-0.444V3.161h0.444V2.436L20.27,2.203z"/>
	<path fill="#2E97FB" stroke="#FFFFFF" stroke-width="0.3" stroke-miterlimit="10" d="M21.489,5.953c0-0.37,0.253-0.638,0.614-0.638
		c0.364,0,0.61,0.259,0.61,0.638c0,0.361-0.246,0.627-0.614,0.627C21.742,6.58,21.489,6.314,21.489,5.953z"/>
	<path fill="#2E97FB" stroke="#FFFFFF" stroke-width="0.3" stroke-miterlimit="10" d="M25.856,6.425
		c-0.185,0.081-0.534,0.149-0.931,0.149c-1.081,0-1.771-0.656-1.771-1.71c0-0.978,0.67-1.779,1.916-1.779
		c0.272,0,0.574,0.049,0.793,0.131l-0.165,0.773c-0.123-0.055-0.308-0.103-0.582-0.103c-0.547,0-0.902,0.39-0.895,0.937
		c0,0.617,0.411,0.938,0.915,0.938c0.247,0,0.438-0.041,0.597-0.103L25.856,6.425z"/>
	<path fill="#2E97FB" stroke="#FFFFFF" stroke-width="0.3" stroke-miterlimit="10" d="M29.663,4.796c0,1.225-0.87,1.784-1.765,1.784
		c-0.979,0-1.732-0.643-1.732-1.722c0-1.082,0.712-1.773,1.787-1.773C28.979,3.084,29.663,3.79,29.663,4.796z M27.24,4.829
		c0,0.575,0.24,1.007,0.685,1.007c0.404,0,0.662-0.404,0.662-1.007c0-0.498-0.19-1.005-0.662-1.005
		C27.425,3.824,27.24,4.337,27.24,4.829z"/>
	<path fill="#2E97FB" stroke="#FFFFFF" stroke-width="0.3" stroke-miterlimit="10" d="M30.309,4.228
		c0-0.417-0.012-0.773-0.026-1.067h0.875l0.048,0.451h0.021c0.146-0.211,0.438-0.527,1.013-0.527c0.431,0,0.772,0.219,0.917,0.569
		h0.013c0.124-0.172,0.273-0.309,0.433-0.404c0.185-0.109,0.39-0.166,0.636-0.166c0.643,0,1.128,0.452,1.128,1.452v1.97h-1.012
		V4.687c0-0.486-0.158-0.767-0.493-0.767c-0.238,0-0.41,0.165-0.479,0.363c-0.028,0.075-0.041,0.186-0.041,0.269v1.955h-1.012V4.632
		c0-0.425-0.151-0.713-0.479-0.713c-0.267,0-0.424,0.206-0.486,0.377c-0.034,0.081-0.04,0.177-0.04,0.259v1.95h-1.014V4.228z"/>
</g>
</svg>
