<?xml version="1.0" encoding="utf-8"?>
<!-- Generator: Adobe Illustrator 16.0.0, SVG Export Plug-In . SVG Version: 6.00 Build 0)  -->
<!DOCTYPE svg PUBLIC "-//W3C//DTD SVG 1.1//EN" "http://www.w3.org/Graphics/SVG/1.1/DTD/svg11.dtd">
<svg version="1.1" id="Layer_1" xmlns="http://www.w3.org/2000/svg" xmlns:xlink="http://www.w3.org/1999/xlink" x="0px" y="0px"
	 width="40px" height="10px" viewBox="0 0 40 10" enable-background="new 0 0 40 10" xml:space="preserve">
<g id="oNjju6.tif">
	<g>
		<path fill="#2E97FB" d="M32.28,3.518c0.17-0.074,0.293-0.041,0.402,0.109c0.162,0.222,0.323,0.447,0.484,0.671
			c0.126,0.177,0.099,0.334-0.079,0.463c-0.243,0.177-0.487,0.355-0.731,0.53c-1.541,1.112-3.082,2.225-4.623,3.34
			c-0.17,0.123-0.332,0.096-0.455-0.074c-0.158-0.219-0.316-0.438-0.476-0.658c-0.121-0.168-0.116-0.281,0.019-0.441
			c0.095-0.113,0.143-0.246,0.125-0.395c-0.047-0.418-0.479-0.623-0.838-0.402c-0.097,0.061-0.162,0.051-0.229-0.041
			c-0.193-0.268-0.387-0.533-0.577-0.801c-0.114-0.16-0.088-0.322,0.072-0.439c0.294-0.213,0.586-0.425,0.88-0.636
			c1.107-0.802,2.219-1.603,3.329-2.404c0.388-0.28,0.774-0.561,1.163-0.841c0.169-0.122,0.334-0.093,0.453,0.076
			c0.164,0.225,0.326,0.45,0.488,0.676c0.106,0.146,0.1,0.269-0.019,0.405c-0.091,0.105-0.14,0.225-0.14,0.364
			C31.532,3.41,31.925,3.67,32.28,3.518z M30.946,1.709c-0.076,0.053-0.147,0.104-0.219,0.155c-0.267,0.191-0.529,0.383-0.795,0.576
			c-0.023,0.017-0.042,0.052-0.047,0.081c-0.016,0.083-0.113,0.154-0.195,0.14c-0.029-0.004-0.064,0.001-0.088,0.017
			c-1.029,0.744-2.061,1.488-3.09,2.232c-0.311,0.225-0.621,0.447-0.932,0.671c-0.021,0.016-0.039,0.031-0.064,0.049
			c0.124,0.17,0.244,0.338,0.364,0.504c0.044,0.062,0.091,0.119,0.13,0.184c0.025,0.039,0.047,0.043,0.091,0.025
			c0.457-0.174,0.947,0.057,1.091,0.514c0.09,0.285,0.037,0.553-0.154,0.785c-0.025,0.029-0.033,0.051-0.008,0.084
			c0.16,0.223,0.319,0.443,0.48,0.664c0.006,0.008,0.016,0.016,0.025,0.027c0.166-0.119,0.33-0.238,0.496-0.357
			c1.104-0.799,2.211-1.598,3.315-2.395c0.093-0.068,0.187-0.133,0.277-0.203c0.017-0.012,0.032-0.033,0.036-0.053
			c0.017-0.113,0.097-0.174,0.209-0.152c0.018,0.002,0.039,0.002,0.053-0.01c0.344-0.246,0.686-0.494,1.035-0.746
			c-0.02-0.03-0.037-0.056-0.057-0.083c-0.146-0.201-0.293-0.404-0.438-0.608c-0.022-0.032-0.04-0.046-0.085-0.028
			c-0.373,0.144-0.764,0.028-0.988-0.29c-0.219-0.309-0.195-0.713,0.059-1.019c0.006-0.009,0.014-0.018,0.023-0.033
			C31.3,2.2,31.126,1.958,30.946,1.709z"/>
		<path fill="#2E97FB" d="M28.587,0.528c0.148,0.086,0.294,0.172,0.441,0.258c0.096,0.057,0.191,0.114,0.289,0.168
			c0.037,0.021,0.045,0.041,0.033,0.083c-0.064,0.22-0.041,0.434,0.069,0.636c0.032,0.062,0.085,0.091,0.155,0.079
			c0.062-0.01,0.104-0.05,0.113-0.11c0.006-0.032-0.003-0.071-0.017-0.1c-0.078-0.151-0.091-0.304-0.038-0.467
			c0.047-0.139-0.007-0.269-0.133-0.343c-0.256-0.151-0.51-0.301-0.768-0.449c-0.156-0.089-0.32-0.04-0.418,0.125
			c-0.356,0.61-0.713,1.221-1.07,1.832c-0.422,0.724-0.844,1.447-1.269,2.17c-0.009,0.017-0.018,0.033-0.026,0.05
			c-0.037,0.075-0.016,0.154,0.055,0.192c0.068,0.041,0.148,0.02,0.193-0.053c0.074-0.125,0.146-0.249,0.22-0.375
			c0.44-0.753,0.88-1.506,1.319-2.261c0.021-0.036,0.041-0.06,0.09-0.065c0.076-0.008,0.133-0.126,0.113-0.205
			c-0.008-0.024-0.011-0.057,0.002-0.077c0.203-0.352,0.408-0.702,0.614-1.051C28.565,0.554,28.573,0.544,28.587,0.528z"/>
		<path fill="#2E97FB" d="M25.208,6.305c0.018-0.035,0.035-0.064,0.05-0.096c0.026-0.059,0.01-0.131-0.04-0.17
			c-0.051-0.041-0.121-0.043-0.174-0.002c-0.13,0.098-0.16,0.311-0.062,0.443C25,6.502,25.022,6.529,25.051,6.543
			c0.146,0.088,0.292,0.174,0.438,0.258c0.058,0.033,0.113,0.029,0.164-0.012c0.047-0.037,0.064-0.09,0.045-0.143
			c-0.015-0.039-0.047-0.076-0.082-0.098c-0.116-0.074-0.235-0.143-0.354-0.211C25.245,6.33,25.229,6.318,25.208,6.305z"/>
		<path fill="#2E97FB" d="M28.128,2.071c0.012,0.014,0.029,0.05,0.061,0.069c0.082,0.056,0.17,0.105,0.258,0.153
			c0.068,0.038,0.119,0.017,0.166-0.061c0.049-0.083,0.047-0.139-0.021-0.182c-0.087-0.054-0.175-0.106-0.265-0.154
			C28.235,1.847,28.124,1.932,28.128,2.071z"/>
		<path fill="#2E97FB" d="M28.821,2.449c-0.002,0.06,0.049,0.111,0.11,0.111c0.063,0,0.144-0.093,0.144-0.168
			c0-0.057-0.051-0.105-0.108-0.106C28.903,2.285,28.823,2.375,28.821,2.449z"/>
		<path fill="#2E97FB" d="M30.05,2.775c-0.052,0.043-0.104,0.075-0.141,0.119c-0.034,0.043-0.012,0.093,0.02,0.135
			c0.048,0.064,0.094,0.129,0.141,0.192c0.056,0.072,0.107,0.075,0.188,0.02c0.079-0.059,0.093-0.112,0.044-0.183
			c-0.047-0.07-0.095-0.14-0.147-0.205C30.129,2.825,30.093,2.807,30.05,2.775z"/>
		<path fill="#2E97FB" d="M31.223,4.78c-0.002,0.058,0.187,0.317,0.241,0.33c0.076,0.02,0.124-0.029,0.168-0.076
			c0.04-0.045,0.029-0.094-0.005-0.141c-0.05-0.068-0.097-0.137-0.146-0.204c-0.035-0.045-0.08-0.071-0.135-0.045
			C31.286,4.671,31.229,4.702,31.223,4.78z"/>
		<path fill="#2E97FB" d="M30.935,4.003c-0.052,0.042-0.105,0.072-0.14,0.117c-0.037,0.045-0.011,0.096,0.022,0.14
			c0.045,0.062,0.088,0.126,0.135,0.186c0.057,0.072,0.111,0.077,0.193,0.015c0.076-0.056,0.088-0.11,0.035-0.185
			c-0.047-0.068-0.096-0.137-0.148-0.203C31.012,4.048,30.977,4.033,30.935,4.003z"/>
		<path fill="#2E97FB" d="M30.614,3.91c0.053-0.042,0.104-0.074,0.142-0.119c0.034-0.042,0.011-0.092-0.021-0.134
			c-0.045-0.063-0.09-0.126-0.136-0.188c-0.057-0.075-0.108-0.081-0.19-0.022c-0.084,0.06-0.096,0.108-0.043,0.188
			c0.048,0.068,0.094,0.135,0.146,0.198C30.534,3.862,30.571,3.878,30.614,3.91z"/>
	</g>
</g>
<g enable-background="new    ">
	<path fill="#2E97FB" d="M6.021,8.429h0.525V6.216H6.104v0.558H5.597V5.709h2.526v1.064H7.617V6.216H7.179v2.213h0.521v0.507H6.021
		V8.429z"/>
	<path fill="#2E97FB" d="M7.665,8.429h0.812V7.138H7.665V6.631h1.411v1.798h0.853v0.507H7.665V8.429z M8.366,6.004
		c0-0.096,0.035-0.177,0.106-0.244c0.071-0.068,0.169-0.102,0.295-0.102c0.129,0,0.232,0.033,0.309,0.102
		c0.077,0.067,0.115,0.148,0.115,0.244c0,0.099-0.039,0.179-0.115,0.242C8.999,6.309,8.896,6.34,8.767,6.34
		c-0.126,0-0.224-0.031-0.295-0.094C8.401,6.183,8.366,6.103,8.366,6.004z"/>
</g>
<g enable-background="new    ">
	<path fill="#2E97FB" d="M12.017,8.688c-0.126,0.096-0.274,0.167-0.443,0.215s-0.346,0.071-0.53,0.071
		c-0.376,0-0.741-0.166-0.533-0.088c0.155,0.058-0.286-0.141-0.392-0.246c-0.106-0.106-0.187-0.234-0.242-0.385
		S9.795,7.939,9.795,7.758c0-0.193,0.032-0.366,0.097-0.517c0.065-0.15,0.155-0.278,0.27-0.383s0.251-0.184,0.408-0.237
		s0.328-0.08,0.512-0.08c0.172,0,0.333,0.02,0.484,0.06c0.15,0.04,0.266,0.078,0.346,0.115v0.812h-0.507V7.104
		c-0.095-0.021-0.19-0.032-0.286-0.032c-0.086,0-0.171,0.013-0.256,0.039c-0.084,0.025-0.16,0.067-0.226,0.124
		s-0.12,0.129-0.161,0.215s-0.062,0.188-0.062,0.309c0,0.099,0.017,0.188,0.051,0.271s0.082,0.155,0.143,0.217
		s0.137,0.11,0.228,0.146s0.191,0.053,0.302,0.053c0.175,0,0.318-0.024,0.431-0.073c0.112-0.05,0.196-0.093,0.251-0.129
		L12.017,8.688z"/>
</g>
<g enable-background="new    ">
	<path fill="#2E97FB" d="M11.746,5.709h0.977v1.839h0.139l0.756-0.917h0.705l-0.931,1.051l0.604,0.747h0.429v0.507h-0.747
		l-0.793-0.954h-0.162v0.954h-0.599v-2.72h-0.378V5.709z"/>
	<path fill="#2E97FB" d="M16.572,8.666c-0.04,0.037-0.091,0.073-0.154,0.108s-0.137,0.068-0.221,0.099
		c-0.084,0.031-0.177,0.056-0.279,0.074s-0.209,0.027-0.323,0.027c-0.197,0-0.373-0.027-0.528-0.083s-0.287-0.136-0.394-0.242
		c-0.108-0.105-0.19-0.233-0.247-0.383c-0.057-0.148-0.085-0.318-0.085-0.509c0-0.203,0.032-0.381,0.097-0.532
		c0.064-0.152,0.153-0.279,0.265-0.381s0.244-0.177,0.394-0.228c0.151-0.051,0.313-0.076,0.489-0.076
		c0.117,0,0.237,0.015,0.362,0.046c0.125,0.03,0.239,0.084,0.344,0.159c0.104,0.075,0.189,0.176,0.256,0.302
		c0.066,0.126,0.099,0.286,0.099,0.479c0,0.132-0.015,0.275-0.046,0.429h-1.66c0.003,0.099,0.024,0.182,0.062,0.249
		c0.038,0.067,0.089,0.123,0.152,0.166s0.135,0.074,0.217,0.094c0.082,0.021,0.168,0.03,0.26,0.03c0.185,0,0.336-0.021,0.454-0.064
		c0.119-0.043,0.214-0.095,0.288-0.156L16.572,8.666z M15.576,7.021c-0.08,0-0.155,0.011-0.226,0.032
		c-0.071,0.022-0.135,0.055-0.191,0.097c-0.057,0.042-0.104,0.095-0.141,0.157c-0.037,0.062-0.059,0.133-0.064,0.211h1.134
		c0-0.153-0.042-0.274-0.126-0.363C15.876,7.064,15.749,7.021,15.576,7.021z"/>
</g>
<g enable-background="new    ">
	<path fill="#2E97FB" d="M17.102,7.138h-0.457V6.631h0.457V6.105l0.599-0.171v0.696h1.208v0.507h-1.208v0.659
		c0,0.236,0.045,0.408,0.134,0.514c0.089,0.106,0.214,0.159,0.374,0.159c0.083,0,0.158-0.01,0.226-0.029
		c0.067-0.021,0.128-0.046,0.182-0.076c0.054-0.031,0.103-0.064,0.148-0.102c0.044-0.037,0.085-0.071,0.122-0.102l0.276,0.415
		c-0.052,0.062-0.118,0.117-0.196,0.168c-0.079,0.051-0.163,0.096-0.253,0.134c-0.091,0.038-0.186,0.068-0.284,0.09
		S18.234,9,18.139,9c-0.344,0-0.603-0.096-0.776-0.288c-0.174-0.192-0.261-0.497-0.261-0.915V7.138z"/>
</g>
<g enable-background="new    ">
	<path fill="#2E97FB" d="M19.144,8.555c0-0.107,0.034-0.192,0.101-0.256c0.068-0.062,0.157-0.094,0.267-0.094
		c0.117,0,0.209,0.031,0.277,0.094c0.067,0.063,0.102,0.148,0.102,0.256c0,0.108-0.034,0.194-0.102,0.259
		c-0.068,0.064-0.16,0.097-0.277,0.097c-0.11,0-0.199-0.032-0.267-0.097C19.177,8.749,19.144,8.663,19.144,8.555z"/>
</g>
<g enable-background="new    ">
	<path fill="#2E97FB" d="M21.903,8.714c-0.127,0.096-0.274,0.167-0.443,0.215S21.114,9,20.931,9c-0.201,0-0.378-0.029-0.533-0.088
		c-0.155-0.058-0.285-0.141-0.392-0.246c-0.106-0.106-0.187-0.234-0.242-0.385s-0.083-0.316-0.083-0.498
		c0-0.193,0.032-0.366,0.097-0.517c0.065-0.15,0.155-0.278,0.271-0.383s0.25-0.184,0.407-0.237s0.327-0.08,0.512-0.08
		c0.173,0,0.333,0.02,0.484,0.06c0.15,0.04,0.266,0.078,0.346,0.115v0.812H21.29V7.129c-0.096-0.021-0.191-0.032-0.286-0.032
		c-0.087,0-0.171,0.013-0.256,0.039c-0.085,0.025-0.16,0.067-0.226,0.124c-0.066,0.057-0.12,0.129-0.162,0.215
		c-0.041,0.086-0.062,0.188-0.062,0.309c0,0.099,0.018,0.188,0.051,0.271c0.034,0.083,0.082,0.155,0.144,0.217
		s0.138,0.11,0.228,0.146c0.092,0.035,0.191,0.053,0.303,0.053c0.175,0,0.318-0.024,0.431-0.073c0.112-0.05,0.196-0.093,0.251-0.129
		L21.903,8.714z"/>
	<path fill="#2E97FB" d="M21.755,7.783c0-0.193,0.029-0.366,0.088-0.517c0.058-0.15,0.142-0.278,0.249-0.383
		s0.236-0.184,0.385-0.237s0.316-0.08,0.5-0.08c0.193,0,0.367,0.029,0.519,0.087c0.152,0.059,0.28,0.141,0.386,0.247
		c0.104,0.105,0.184,0.234,0.236,0.385c0.055,0.15,0.081,0.316,0.081,0.498c0,0.193-0.029,0.365-0.087,0.517
		c-0.059,0.15-0.143,0.277-0.25,0.382s-0.235,0.184-0.385,0.237C23.328,8.974,23.161,9,22.977,9c-0.193,0-0.366-0.029-0.519-0.088
		c-0.151-0.058-0.28-0.141-0.385-0.246c-0.104-0.106-0.184-0.234-0.237-0.385C21.781,8.131,21.755,7.965,21.755,7.783z
		 M22.373,7.783c0,0.102,0.014,0.195,0.041,0.281s0.068,0.161,0.12,0.226s0.115,0.114,0.188,0.15
		c0.074,0.035,0.158,0.053,0.254,0.053c0.178,0,0.324-0.057,0.436-0.171c0.112-0.113,0.168-0.293,0.168-0.539
		c0-0.212-0.052-0.384-0.156-0.514c-0.104-0.131-0.254-0.196-0.447-0.196c-0.086,0-0.166,0.013-0.24,0.039
		c-0.073,0.026-0.137,0.068-0.19,0.127s-0.097,0.132-0.127,0.221C22.389,7.55,22.373,7.657,22.373,7.783z"/>
	<path fill="#2E97FB" d="M25.217,8.936v-1.41c0-0.093-0.006-0.167-0.019-0.224C25.186,7.244,25.17,7.2,25.15,7.168
		c-0.021-0.032-0.045-0.054-0.074-0.064s-0.059-0.017-0.09-0.017c-0.053,0-0.101,0.017-0.145,0.051
		c-0.045,0.034-0.075,0.077-0.09,0.129v1.669h-0.554V6.631h0.438l0.064,0.253h0.014c0.046-0.089,0.113-0.162,0.203-0.219
		c0.088-0.057,0.193-0.085,0.312-0.085c0.102,0,0.199,0.024,0.291,0.073c0.092,0.05,0.154,0.136,0.188,0.259
		c0.046-0.107,0.117-0.19,0.212-0.247c0.096-0.057,0.199-0.085,0.309-0.085c0.084,0,0.158,0.012,0.225,0.034
		c0.065,0.023,0.123,0.064,0.172,0.122c0.05,0.059,0.088,0.138,0.113,0.237c0.026,0.101,0.039,0.229,0.039,0.386v1.576h-0.553V7.46
		c0-0.138-0.022-0.234-0.066-0.29c-0.045-0.056-0.1-0.083-0.164-0.083c-0.056,0-0.104,0.014-0.143,0.039
		c-0.041,0.026-0.068,0.068-0.084,0.127v1.683H25.217z"/>
</g>
</svg>
