<?xml version="1.0" standalone="no"?><!-- Generator: Gravit.io --><svg xmlns="http://www.w3.org/2000/svg" xmlns:xlink="http://www.w3.org/1999/xlink" style="isolation:isolate" viewBox="569.289 39.54 344.809 135.025" width="344.809" height="135.025"><defs><clipPath id="_clipPath_1u7jcb2px6XQZYrac3PhrOHiKdyTlkma"><rect x="569.289" y="39.54" width="344.809" height="135.025"/></clipPath></defs><g clip-path="url(#_clipPath_1u7jcb2px6XQZYrac3PhrOHiKdyTlkma)"><path d=" M 828.275 162.785 L 836.132 162.785 L 836.132 162.785 Q 836.132 165.923 834.523 168.376 L 834.523 168.376 L 834.523 168.376 Q 832.914 170.83 830.152 172.198 L 830.152 172.198 L 830.152 172.198 Q 827.39 173.566 823.984 173.566 L 823.984 173.566 L 823.984 173.566 Q 819.613 173.566 816.569 171.661 L 816.569 171.661 L 816.569 171.661 Q 813.525 169.757 812.01 166.446 L 812.01 166.446 L 812.01 166.446 Q 810.495 163.134 810.495 158.87 L 810.495 158.87 L 810.495 158.199 L 810.495 158.199 Q 810.495 153.935 812.01 150.61 L 812.01 150.61 L 812.01 150.61 Q 813.525 147.285 816.556 145.381 L 816.556 145.381 L 816.556 145.381 Q 819.586 143.476 823.957 143.476 L 823.957 143.476 L 823.957 143.476 Q 827.551 143.476 830.299 144.858 L 830.299 144.858 L 830.299 144.858 Q 833.048 146.239 834.59 148.853 L 834.59 148.853 L 834.59 148.853 Q 836.132 151.468 836.132 155.035 L 836.132 155.035 L 828.275 155.035 L 828.275 155.035 Q 828.248 152.916 827.081 151.575 L 827.081 151.575 L 827.081 151.575 Q 825.915 150.234 823.769 150.234 L 823.769 150.234 L 823.769 150.234 Q 820.927 150.234 819.894 152.366 L 819.894 152.366 L 819.894 152.366 Q 818.862 154.498 818.862 158.199 L 818.862 158.199 L 818.862 158.87 L 818.862 158.87 Q 818.862 162.651 819.894 164.729 L 819.894 164.729 L 819.894 164.729 Q 820.927 166.808 823.823 166.808 L 823.823 166.808 L 823.823 166.808 Q 825.834 166.808 827.041 165.721 L 827.041 165.721 L 827.041 165.721 Q 828.248 164.635 828.275 162.785 L 828.275 162.785 Z  M 839.109 158.253 L 839.109 158.253 Q 839.109 153.989 840.731 150.637 L 840.731 150.637 L 840.731 150.637 Q 842.354 147.285 845.478 145.381 L 845.478 145.381 L 845.478 145.381 Q 848.602 143.476 852.947 143.476 L 852.947 143.476 L 852.947 143.476 Q 857.318 143.476 860.455 145.381 L 860.455 145.381 L 860.455 145.381 Q 863.593 147.285 865.216 150.623 L 865.216 150.623 L 865.216 150.623 Q 866.838 153.962 866.838 158.253 L 866.838 158.253 L 866.838 158.816 L 866.838 158.816 Q 866.838 163.08 865.216 166.432 L 865.216 166.432 L 865.216 166.432 Q 863.593 169.784 860.469 171.675 L 860.469 171.675 L 860.469 171.675 Q 857.345 173.566 853 173.566 L 853 173.566 L 853 173.566 Q 848.629 173.566 845.491 171.675 L 845.491 171.675 L 845.491 171.675 Q 842.354 169.784 840.731 166.446 L 840.731 166.446 L 840.731 166.446 Q 839.109 163.107 839.109 158.816 L 839.109 158.816 L 839.109 158.253 Z  M 847.476 158.816 L 847.476 158.816 Q 847.476 162.49 848.777 164.649 L 848.777 164.649 L 848.777 164.649 Q 850.077 166.808 853 166.808 L 853 166.808 L 853 166.808 Q 855.87 166.808 857.17 164.635 L 857.17 164.635 L 857.17 164.635 Q 858.471 162.463 858.471 158.816 L 858.471 158.816 L 858.471 158.253 L 858.471 158.253 Q 858.471 154.659 857.17 152.447 L 857.17 152.447 L 857.17 152.447 Q 855.87 150.234 852.947 150.234 L 852.947 150.234 L 852.947 150.234 Q 850.077 150.234 848.777 152.447 L 848.777 152.447 L 848.777 152.447 Q 847.476 154.659 847.476 158.253 L 847.476 158.253 L 847.476 158.816 Z  M 903.9 143.476 L 903.9 143.476 Q 908.298 143.476 910.698 146.105 L 910.698 146.105 L 910.698 146.105 Q 913.098 148.733 913.098 154.686 L 913.098 154.686 L 913.098 173.029 L 904.704 173.029 L 904.704 154.686 L 904.704 154.686 Q 904.704 152.916 904.248 151.937 L 904.248 151.937 L 904.248 151.937 Q 903.792 150.959 902.947 150.596 L 902.947 150.596 L 902.947 150.596 Q 902.103 150.234 900.762 150.234 L 900.762 150.234 L 900.762 150.234 Q 899.206 150.234 898.107 150.985 L 898.107 150.985 L 898.107 150.985 Q 897.007 151.736 896.364 153.077 L 896.364 153.077 L 896.364 153.667 L 896.364 173.029 L 887.997 173.029 L 887.997 154.74 L 887.997 154.74 Q 887.997 152.943 887.541 151.951 L 887.541 151.951 L 887.541 151.951 Q 887.085 150.959 886.227 150.596 L 886.227 150.596 L 886.227 150.596 Q 885.369 150.234 884.028 150.234 L 884.028 150.234 L 884.028 150.234 Q 882.553 150.234 881.453 150.891 L 881.453 150.891 L 881.453 150.891 Q 880.354 151.548 879.657 152.755 L 879.657 152.755 L 879.657 173.029 L 871.29 173.029 L 871.29 144.013 L 879.147 144.013 L 879.415 147.311 L 879.415 147.311 Q 880.863 145.461 882.955 144.469 L 882.955 144.469 L 882.955 144.469 Q 885.047 143.476 887.702 143.476 L 887.702 143.476 L 887.702 143.476 Q 890.384 143.476 892.314 144.563 L 892.314 144.563 L 892.314 144.563 Q 894.245 145.649 895.291 147.875 L 895.291 147.875 L 895.291 147.875 Q 896.712 145.756 898.885 144.616 L 898.885 144.616 L 898.885 144.616 Q 901.057 143.476 903.9 143.476 L 903.9 143.476 Z  M 667.853 166.7 L 667.853 166.7 Q 669.114 166.7 670.106 166.513 L 670.106 166.513 L 670.106 172.815 L 670.106 172.815 Q 667.907 173.566 665.225 173.566 L 665.225 173.566 L 665.225 173.566 Q 661.015 173.566 658.776 171.447 L 658.776 171.447 L 658.776 171.447 Q 656.537 169.328 656.537 164.769 L 656.537 164.769 L 656.537 150.1 L 652.568 150.1 L 652.568 144.013 L 656.537 144.013 L 656.537 136.826 L 664.904 136.826 L 664.904 144.013 L 669.757 144.013 L 669.757 150.1 L 664.904 150.1 L 664.904 163.75 L 664.904 163.75 Q 664.904 165.467 665.574 166.083 L 665.574 166.083 L 665.574 166.083 Q 666.244 166.7 667.853 166.7 L 667.853 166.7 Z  M 678.339 132.24 L 678.339 132.24 Q 680.431 132.24 681.718 133.433 L 681.718 133.433 L 681.718 133.433 Q 683.005 134.627 683.005 136.531 L 683.005 136.531 L 683.005 136.531 Q 683.005 138.408 681.718 139.601 L 681.718 139.601 L 681.718 139.601 Q 680.431 140.795 678.339 140.795 L 678.339 140.795 L 678.339 140.795 Q 676.247 140.795 674.973 139.601 L 674.973 139.601 L 674.973 139.601 Q 673.7 138.408 673.7 136.531 L 673.7 136.531 L 673.7 136.531 Q 673.7 134.627 674.973 133.433 L 674.973 133.433 L 674.973 133.433 Q 676.247 132.24 678.339 132.24 L 678.339 132.24 Z  M 682.576 173.029 L 674.182 173.029 L 674.182 144.013 L 682.576 144.013 L 682.576 173.029 Z  M 705.183 162.785 L 713.041 162.785 L 713.041 162.785 Q 713.041 165.923 711.432 168.376 L 711.432 168.376 L 711.432 168.376 Q 709.823 170.83 707.06 172.198 L 707.06 172.198 L 707.06 172.198 Q 704.298 173.566 700.892 173.566 L 700.892 173.566 L 700.892 173.566 Q 696.521 173.566 693.477 171.661 L 693.477 171.661 L 693.477 171.661 Q 690.434 169.757 688.918 166.446 L 688.918 166.446 L 688.918 166.446 Q 687.403 163.134 687.403 158.87 L 687.403 158.87 L 687.403 158.199 L 687.403 158.199 Q 687.403 153.935 688.918 150.61 L 688.918 150.61 L 688.918 150.61 Q 690.434 147.285 693.464 145.381 L 693.464 145.381 L 693.464 145.381 Q 696.494 143.476 700.866 143.476 L 700.866 143.476 L 700.866 143.476 Q 704.459 143.476 707.208 144.858 L 707.208 144.858 L 707.208 144.858 Q 709.957 146.239 711.499 148.853 L 711.499 148.853 L 711.499 148.853 Q 713.041 151.468 713.041 155.035 L 713.041 155.035 L 705.183 155.035 L 705.183 155.035 Q 705.156 152.916 703.99 151.575 L 703.99 151.575 L 703.99 151.575 Q 702.823 150.234 700.678 150.234 L 700.678 150.234 L 700.678 150.234 Q 697.835 150.234 696.803 152.366 L 696.803 152.366 L 696.803 152.366 Q 695.77 154.498 695.77 158.199 L 695.77 158.199 L 695.77 158.87 L 695.77 158.87 Q 695.77 162.651 696.803 164.729 L 696.803 164.729 L 696.803 164.729 Q 697.835 166.808 700.731 166.808 L 700.731 166.808 L 700.731 166.808 Q 702.743 166.808 703.95 165.721 L 703.95 165.721 L 703.95 165.721 Q 705.156 164.635 705.183 162.785 L 705.183 162.785 Z  M 735.165 173.029 L 728.273 161.793 L 725.591 164.448 L 725.591 173.029 L 717.224 173.029 L 717.224 131.811 L 725.591 131.811 L 725.591 154.15 L 726.798 152.568 L 733.931 144.013 L 743.961 144.013 L 733.663 156.054 L 744.766 173.029 L 735.165 173.029 Z  M 772.629 157.69 L 772.629 161.256 L 754.42 161.256 L 754.42 161.256 Q 754.902 163.831 756.646 165.319 L 756.646 165.319 L 756.646 165.319 Q 758.389 166.808 761.097 166.808 L 761.097 166.808 L 761.097 166.808 Q 763.189 166.808 764.959 166.057 L 764.959 166.057 L 764.959 166.057 Q 766.729 165.306 767.989 163.724 L 767.989 163.724 L 771.931 168.417 L 771.931 168.417 Q 770.403 170.589 767.453 172.077 L 767.453 172.077 L 767.453 172.077 Q 764.503 173.566 760.561 173.566 L 760.561 173.566 L 760.561 173.566 Q 756.082 173.566 752.757 171.675 L 752.757 171.675 L 752.757 171.675 Q 749.432 169.784 747.662 166.566 L 747.662 166.566 L 747.662 166.566 Q 745.892 163.348 745.892 159.486 L 745.892 159.486 L 745.892 158.467 L 745.892 158.467 Q 745.892 154.15 747.528 150.757 L 747.528 150.757 L 747.528 150.757 Q 749.164 147.365 752.261 145.421 L 752.261 145.421 L 752.261 145.421 Q 755.358 143.476 759.649 143.476 L 759.649 143.476 L 759.649 143.476 Q 763.752 143.476 766.675 145.206 L 766.675 145.206 L 766.675 145.206 Q 769.598 146.936 771.114 150.141 L 771.114 150.141 L 771.114 150.141 Q 772.629 153.345 772.629 157.69 L 772.629 157.69 Z  M 764.423 155.705 L 764.423 155.035 L 764.423 155.035 Q 764.423 152.782 763.202 151.508 L 763.202 151.508 L 763.202 151.508 Q 761.982 150.234 759.596 150.234 L 759.596 150.234 L 759.596 150.234 Q 755.332 150.234 754.447 155.705 L 754.447 155.705 L 764.423 155.705 Z  M 789.497 166.7 L 789.497 166.7 Q 790.757 166.7 791.749 166.513 L 791.749 166.513 L 791.749 172.815 L 791.749 172.815 Q 789.55 173.566 786.869 173.566 L 786.869 173.566 L 786.869 173.566 Q 782.658 173.566 780.419 171.447 L 780.419 171.447 L 780.419 171.447 Q 778.18 169.328 778.18 164.769 L 778.18 164.769 L 778.18 150.1 L 774.211 150.1 L 774.211 144.013 L 778.18 144.013 L 778.18 136.826 L 786.547 136.826 L 786.547 144.013 L 791.401 144.013 L 791.401 150.1 L 786.547 150.1 L 786.547 163.75 L 786.547 163.75 Q 786.547 165.467 787.217 166.083 L 787.217 166.083 L 787.217 166.083 Q 787.888 166.7 789.497 166.7 L 789.497 166.7 Z  M 800.546 164.501 L 800.546 164.501 Q 801.913 164.501 802.986 165.078 L 802.986 165.078 L 802.986 165.078 Q 804.059 165.654 804.635 166.66 L 804.635 166.66 L 804.635 166.66 Q 805.212 167.666 805.212 168.926 L 805.212 168.926 L 805.212 168.926 Q 805.212 170.16 804.635 171.165 L 804.635 171.165 L 804.635 171.165 Q 804.059 172.171 802.986 172.748 L 802.986 172.748 L 802.986 172.748 Q 801.913 173.324 800.546 173.324 L 800.546 173.324 L 800.546 173.324 Q 799.178 173.324 798.105 172.748 L 798.105 172.748 L 798.105 172.748 Q 797.032 172.171 796.456 171.165 L 796.456 171.165 L 796.456 171.165 Q 795.879 170.16 795.879 168.926 L 795.879 168.926 L 795.879 168.926 Q 795.879 167.666 796.456 166.66 L 796.456 166.66 L 796.456 166.66 Q 797.032 165.654 798.105 165.078 L 798.105 165.078 L 798.105 165.078 Q 799.178 164.501 800.546 164.501 L 800.546 164.501 Z " fill="rgb(255,255,255)" vector-effect="non-scaling-stroke" stroke-width="2" stroke="rgb(0,0,0)" stroke-linejoin="miter" stroke-linecap="square" stroke-miterlimit="3"/><path d=" M 701.738 80.567 L 693.461 72.29 C 692.5 71.326 690.967 71.241 689.905 72.092 C 687.513 74.007 684.84 74.978 681.962 74.978 C 675.034 74.971 669.42 69.357 669.413 62.429 C 669.413 59.551 670.385 56.879 672.299 54.486 C 673.15 53.424 673.066 51.892 672.104 50.93 L 663.824 42.653 C 661.008 39.833 655.919 39.841 653.112 42.647 L 638.793 56.873 L 642.464 60.544 C 643.506 61.587 643.506 63.277 642.463 64.318 C 641.421 65.36 639.731 65.36 638.689 64.317 L 635.007 60.635 L 572.473 122.753 C 571.058 124.175 570.271 126.105 570.289 128.111 C 570.289 130.162 571.066 132.063 572.473 133.473 L 580.75 141.75 C 581.712 142.712 583.244 142.797 584.306 141.947 C 586.846 139.91 589.764 138.791 592.517 138.791 C 599.437 138.791 605.066 144.42 605.066 151.338 C 605.085 154.32 603.997 157.203 602.014 159.431 C 601.064 160.486 601.106 162.1 602.11 163.104 L 610.387 171.384 C 611.794 172.791 613.698 173.566 615.746 173.566 C 617.794 173.566 619.695 172.791 621.104 171.384 L 683.433 109.056 L 679.81 105.435 C 678.767 104.393 678.767 102.702 679.81 101.66 C 680.852 100.617 682.543 100.617 683.585 101.66 L 687.208 105.28 L 701.357 91.132 C 702.825 89.957 703.738 88.2 703.874 86.281 C 704.023 84.157 703.244 82.072 701.738 80.567 L 701.738 80.567 Z  M 646.165 68.018 C 646.665 67.517 647.344 67.235 648.053 67.235 C 648.761 67.235 649.44 67.517 649.94 68.018 L 653.689 71.766 C 654.732 72.809 654.732 74.499 653.689 75.542 C 652.647 76.584 650.956 76.584 649.914 75.542 L 646.165 71.793 C 645.664 71.293 645.382 70.614 645.382 69.905 C 645.382 69.197 645.664 68.518 646.165 68.018 Z  M 639.509 119.033 L 636.038 134.786 L 628.028 120.633 L 612.008 121.968 L 622.955 109.953 L 616.547 95.001 L 631.232 101.676 L 643.516 90.996 L 641.378 107.552 L 655.262 115.829 L 639.509 119.033 Z  M 664.932 86.785 C 664.433 87.288 663.753 87.57 663.045 87.57 C 662.336 87.57 661.657 87.288 661.157 86.785 L 657.411 83.036 C 656.369 81.994 656.369 80.304 657.411 79.261 C 658.454 78.219 660.144 78.219 661.186 79.261 L 664.932 83.01 C 665.434 83.51 665.715 84.189 665.715 84.897 C 665.715 85.606 665.434 86.285 664.932 86.785 Z  M 676.178 98.031 C 675.679 98.534 674.999 98.816 674.291 98.816 C 673.582 98.816 672.903 98.534 672.403 98.031 L 668.654 94.283 C 667.612 93.24 667.612 91.55 668.654 90.507 C 669.697 89.465 671.387 89.465 672.43 90.507 L 676.178 94.256 C 677.221 95.298 677.221 96.989 676.178 98.031 Z " fill="rgb(255,255,255)" vector-effect="non-scaling-stroke" stroke-width="2" stroke="rgb(0,0,0)" stroke-linejoin="miter" stroke-linecap="butt" stroke-miterlimit="4"/></g></svg>