<?xml version="1.0" standalone="no"?><!-- Generator: Gravit.io --><svg xmlns="http://www.w3.org/2000/svg" xmlns:xlink="http://www.w3.org/1999/xlink" style="isolation:isolate" viewBox="652.068 -11.514 261.53 185.579" width="261.53" height="185.579"><defs><clipPath id="_clipPath_MtinyOASD1ihM1OXQ33XEwUYQDiEOD1L"><rect x="652.068" y="-11.514" width="261.53" height="185.579"/></clipPath></defs><g clip-path="url(#_clipPath_MtinyOASD1ihM1OXQ33XEwUYQDiEOD1L)"><path d=" M 828.275 162.785 L 836.132 162.785 L 836.132 162.785 Q 836.132 165.923 834.523 168.376 L 834.523 168.376 L 834.523 168.376 Q 832.914 170.83 830.152 172.198 L 830.152 172.198 L 830.152 172.198 Q 827.39 173.566 823.984 173.566 L 823.984 173.566 L 823.984 173.566 Q 819.613 173.566 816.569 171.661 L 816.569 171.661 L 816.569 171.661 Q 813.525 169.757 812.01 166.446 L 812.01 166.446 L 812.01 166.446 Q 810.495 163.134 810.495 158.87 L 810.495 158.87 L 810.495 158.199 L 810.495 158.199 Q 810.495 153.935 812.01 150.61 L 812.01 150.61 L 812.01 150.61 Q 813.525 147.285 816.556 145.381 L 816.556 145.381 L 816.556 145.381 Q 819.586 143.476 823.957 143.476 L 823.957 143.476 L 823.957 143.476 Q 827.551 143.476 830.299 144.858 L 830.299 144.858 L 830.299 144.858 Q 833.048 146.239 834.59 148.853 L 834.59 148.853 L 834.59 148.853 Q 836.132 151.468 836.132 155.035 L 836.132 155.035 L 828.275 155.035 L 828.275 155.035 Q 828.248 152.916 827.081 151.575 L 827.081 151.575 L 827.081 151.575 Q 825.915 150.234 823.769 150.234 L 823.769 150.234 L 823.769 150.234 Q 820.927 150.234 819.894 152.366 L 819.894 152.366 L 819.894 152.366 Q 818.862 154.498 818.862 158.199 L 818.862 158.199 L 818.862 158.87 L 818.862 158.87 Q 818.862 162.651 819.894 164.729 L 819.894 164.729 L 819.894 164.729 Q 820.927 166.808 823.823 166.808 L 823.823 166.808 L 823.823 166.808 Q 825.834 166.808 827.041 165.721 L 827.041 165.721 L 827.041 165.721 Q 828.248 164.635 828.275 162.785 L 828.275 162.785 Z  M 839.109 158.253 L 839.109 158.253 Q 839.109 153.989 840.731 150.637 L 840.731 150.637 L 840.731 150.637 Q 842.354 147.285 845.478 145.381 L 845.478 145.381 L 845.478 145.381 Q 848.602 143.476 852.947 143.476 L 852.947 143.476 L 852.947 143.476 Q 857.318 143.476 860.455 145.381 L 860.455 145.381 L 860.455 145.381 Q 863.593 147.285 865.216 150.623 L 865.216 150.623 L 865.216 150.623 Q 866.838 153.962 866.838 158.253 L 866.838 158.253 L 866.838 158.816 L 866.838 158.816 Q 866.838 163.08 865.216 166.432 L 865.216 166.432 L 865.216 166.432 Q 863.593 169.784 860.469 171.675 L 860.469 171.675 L 860.469 171.675 Q 857.345 173.566 853 173.566 L 853 173.566 L 853 173.566 Q 848.629 173.566 845.491 171.675 L 845.491 171.675 L 845.491 171.675 Q 842.354 169.784 840.731 166.446 L 840.731 166.446 L 840.731 166.446 Q 839.109 163.107 839.109 158.816 L 839.109 158.816 L 839.109 158.253 Z  M 847.476 158.816 L 847.476 158.816 Q 847.476 162.49 848.777 164.649 L 848.777 164.649 L 848.777 164.649 Q 850.077 166.808 853 166.808 L 853 166.808 L 853 166.808 Q 855.87 166.808 857.17 164.635 L 857.17 164.635 L 857.17 164.635 Q 858.471 162.463 858.471 158.816 L 858.471 158.816 L 858.471 158.253 L 858.471 158.253 Q 858.471 154.659 857.17 152.447 L 857.17 152.447 L 857.17 152.447 Q 855.87 150.234 852.947 150.234 L 852.947 150.234 L 852.947 150.234 Q 850.077 150.234 848.777 152.447 L 848.777 152.447 L 848.777 152.447 Q 847.476 154.659 847.476 158.253 L 847.476 158.253 L 847.476 158.816 Z  M 903.9 143.476 L 903.9 143.476 Q 908.298 143.476 910.698 146.105 L 910.698 146.105 L 910.698 146.105 Q 913.098 148.733 913.098 154.686 L 913.098 154.686 L 913.098 173.029 L 904.704 173.029 L 904.704 154.686 L 904.704 154.686 Q 904.704 152.916 904.248 151.937 L 904.248 151.937 L 904.248 151.937 Q 903.792 150.959 902.947 150.596 L 902.947 150.596 L 902.947 150.596 Q 902.103 150.234 900.762 150.234 L 900.762 150.234 L 900.762 150.234 Q 899.206 150.234 898.107 150.985 L 898.107 150.985 L 898.107 150.985 Q 897.007 151.736 896.364 153.077 L 896.364 153.077 L 896.364 153.667 L 896.364 173.029 L 887.997 173.029 L 887.997 154.74 L 887.997 154.74 Q 887.997 152.943 887.541 151.951 L 887.541 151.951 L 887.541 151.951 Q 887.085 150.959 886.227 150.596 L 886.227 150.596 L 886.227 150.596 Q 885.369 150.234 884.028 150.234 L 884.028 150.234 L 884.028 150.234 Q 882.553 150.234 881.453 150.891 L 881.453 150.891 L 881.453 150.891 Q 880.354 151.548 879.657 152.755 L 879.657 152.755 L 879.657 173.029 L 871.29 173.029 L 871.29 144.013 L 879.147 144.013 L 879.415 147.311 L 879.415 147.311 Q 880.863 145.461 882.955 144.469 L 882.955 144.469 L 882.955 144.469 Q 885.047 143.476 887.702 143.476 L 887.702 143.476 L 887.702 143.476 Q 890.384 143.476 892.314 144.563 L 892.314 144.563 L 892.314 144.563 Q 894.245 145.649 895.291 147.875 L 895.291 147.875 L 895.291 147.875 Q 896.712 145.756 898.885 144.616 L 898.885 144.616 L 898.885 144.616 Q 901.057 143.476 903.9 143.476 L 903.9 143.476 Z  M 667.853 166.7 L 667.853 166.7 Q 669.114 166.7 670.106 166.513 L 670.106 166.513 L 670.106 172.815 L 670.106 172.815 Q 667.907 173.566 665.225 173.566 L 665.225 173.566 L 665.225 173.566 Q 661.015 173.566 658.776 171.447 L 658.776 171.447 L 658.776 171.447 Q 656.537 169.328 656.537 164.769 L 656.537 164.769 L 656.537 150.1 L 652.568 150.1 L 652.568 144.013 L 656.537 144.013 L 656.537 136.826 L 664.904 136.826 L 664.904 144.013 L 669.757 144.013 L 669.757 150.1 L 664.904 150.1 L 664.904 163.75 L 664.904 163.75 Q 664.904 165.467 665.574 166.083 L 665.574 166.083 L 665.574 166.083 Q 666.244 166.7 667.853 166.7 L 667.853 166.7 Z  M 678.339 132.24 L 678.339 132.24 Q 680.431 132.24 681.718 133.433 L 681.718 133.433 L 681.718 133.433 Q 683.005 134.627 683.005 136.531 L 683.005 136.531 L 683.005 136.531 Q 683.005 138.408 681.718 139.601 L 681.718 139.601 L 681.718 139.601 Q 680.431 140.795 678.339 140.795 L 678.339 140.795 L 678.339 140.795 Q 676.247 140.795 674.973 139.601 L 674.973 139.601 L 674.973 139.601 Q 673.7 138.408 673.7 136.531 L 673.7 136.531 L 673.7 136.531 Q 673.7 134.627 674.973 133.433 L 674.973 133.433 L 674.973 133.433 Q 676.247 132.24 678.339 132.24 L 678.339 132.24 Z  M 682.576 173.029 L 674.182 173.029 L 674.182 144.013 L 682.576 144.013 L 682.576 173.029 Z  M 705.183 162.785 L 713.041 162.785 L 713.041 162.785 Q 713.041 165.923 711.432 168.376 L 711.432 168.376 L 711.432 168.376 Q 709.823 170.83 707.06 172.198 L 707.06 172.198 L 707.06 172.198 Q 704.298 173.566 700.892 173.566 L 700.892 173.566 L 700.892 173.566 Q 696.521 173.566 693.477 171.661 L 693.477 171.661 L 693.477 171.661 Q 690.434 169.757 688.918 166.446 L 688.918 166.446 L 688.918 166.446 Q 687.403 163.134 687.403 158.87 L 687.403 158.87 L 687.403 158.199 L 687.403 158.199 Q 687.403 153.935 688.918 150.61 L 688.918 150.61 L 688.918 150.61 Q 690.434 147.285 693.464 145.381 L 693.464 145.381 L 693.464 145.381 Q 696.494 143.476 700.866 143.476 L 700.866 143.476 L 700.866 143.476 Q 704.459 143.476 707.208 144.858 L 707.208 144.858 L 707.208 144.858 Q 709.957 146.239 711.499 148.853 L 711.499 148.853 L 711.499 148.853 Q 713.041 151.468 713.041 155.035 L 713.041 155.035 L 705.183 155.035 L 705.183 155.035 Q 705.156 152.916 703.99 151.575 L 703.99 151.575 L 703.99 151.575 Q 702.823 150.234 700.678 150.234 L 700.678 150.234 L 700.678 150.234 Q 697.835 150.234 696.803 152.366 L 696.803 152.366 L 696.803 152.366 Q 695.77 154.498 695.77 158.199 L 695.77 158.199 L 695.77 158.87 L 695.77 158.87 Q 695.77 162.651 696.803 164.729 L 696.803 164.729 L 696.803 164.729 Q 697.835 166.808 700.731 166.808 L 700.731 166.808 L 700.731 166.808 Q 702.743 166.808 703.95 165.721 L 703.95 165.721 L 703.95 165.721 Q 705.156 164.635 705.183 162.785 L 705.183 162.785 Z  M 735.165 173.029 L 728.273 161.793 L 725.591 164.448 L 725.591 173.029 L 717.224 173.029 L 717.224 131.811 L 725.591 131.811 L 725.591 154.15 L 726.798 152.568 L 733.931 144.013 L 743.961 144.013 L 733.663 156.054 L 744.766 173.029 L 735.165 173.029 Z  M 772.629 157.69 L 772.629 161.256 L 754.42 161.256 L 754.42 161.256 Q 754.902 163.831 756.646 165.319 L 756.646 165.319 L 756.646 165.319 Q 758.389 166.808 761.097 166.808 L 761.097 166.808 L 761.097 166.808 Q 763.189 166.808 764.959 166.057 L 764.959 166.057 L 764.959 166.057 Q 766.729 165.306 767.989 163.724 L 767.989 163.724 L 771.931 168.417 L 771.931 168.417 Q 770.403 170.589 767.453 172.077 L 767.453 172.077 L 767.453 172.077 Q 764.503 173.566 760.561 173.566 L 760.561 173.566 L 760.561 173.566 Q 756.082 173.566 752.757 171.675 L 752.757 171.675 L 752.757 171.675 Q 749.432 169.784 747.662 166.566 L 747.662 166.566 L 747.662 166.566 Q 745.892 163.348 745.892 159.486 L 745.892 159.486 L 745.892 158.467 L 745.892 158.467 Q 745.892 154.15 747.528 150.757 L 747.528 150.757 L 747.528 150.757 Q 749.164 147.365 752.261 145.421 L 752.261 145.421 L 752.261 145.421 Q 755.358 143.476 759.649 143.476 L 759.649 143.476 L 759.649 143.476 Q 763.752 143.476 766.675 145.206 L 766.675 145.206 L 766.675 145.206 Q 769.598 146.936 771.114 150.141 L 771.114 150.141 L 771.114 150.141 Q 772.629 153.345 772.629 157.69 L 772.629 157.69 Z  M 764.423 155.705 L 764.423 155.035 L 764.423 155.035 Q 764.423 152.782 763.202 151.508 L 763.202 151.508 L 763.202 151.508 Q 761.982 150.234 759.596 150.234 L 759.596 150.234 L 759.596 150.234 Q 755.332 150.234 754.447 155.705 L 754.447 155.705 L 764.423 155.705 Z  M 789.497 166.7 L 789.497 166.7 Q 790.757 166.7 791.749 166.513 L 791.749 166.513 L 791.749 172.815 L 791.749 172.815 Q 789.55 173.566 786.869 173.566 L 786.869 173.566 L 786.869 173.566 Q 782.658 173.566 780.419 171.447 L 780.419 171.447 L 780.419 171.447 Q 778.18 169.328 778.18 164.769 L 778.18 164.769 L 778.18 150.1 L 774.211 150.1 L 774.211 144.013 L 778.18 144.013 L 778.18 136.826 L 786.547 136.826 L 786.547 144.013 L 791.401 144.013 L 791.401 150.1 L 786.547 150.1 L 786.547 163.75 L 786.547 163.75 Q 786.547 165.467 787.217 166.083 L 787.217 166.083 L 787.217 166.083 Q 787.888 166.7 789.497 166.7 L 789.497 166.7 Z  M 800.546 164.501 L 800.546 164.501 Q 801.913 164.501 802.986 165.078 L 802.986 165.078 L 802.986 165.078 Q 804.059 165.654 804.635 166.66 L 804.635 166.66 L 804.635 166.66 Q 805.212 167.666 805.212 168.926 L 805.212 168.926 L 805.212 168.926 Q 805.212 170.16 804.635 171.165 L 804.635 171.165 L 804.635 171.165 Q 804.059 172.171 802.986 172.748 L 802.986 172.748 L 802.986 172.748 Q 801.913 173.324 800.546 173.324 L 800.546 173.324 L 800.546 173.324 Q 799.178 173.324 798.105 172.748 L 798.105 172.748 L 798.105 172.748 Q 797.032 172.171 796.456 171.165 L 796.456 171.165 L 796.456 171.165 Q 795.879 170.16 795.879 168.926 L 795.879 168.926 L 795.879 168.926 Q 795.879 167.666 796.456 166.66 L 796.456 166.66 L 796.456 166.66 Q 797.032 165.654 798.105 165.078 L 798.105 165.078 L 798.105 165.078 Q 799.178 164.501 800.546 164.501 L 800.546 164.501 Z " fill="rgb(0,0,0)" vector-effect="non-scaling-stroke" stroke-width="1" stroke="rgb(0,0,0)" stroke-linejoin="miter" stroke-linecap="square" stroke-miterlimit="3"/><path d=" M 861.104 29.012 L 852.827 20.735 C 851.865 19.772 850.333 19.687 849.27 20.538 C 846.878 22.452 844.205 23.424 841.327 23.424 C 834.4 23.417 828.785 17.803 828.778 10.875 C 828.778 7.997 829.75 5.324 831.664 2.932 C 832.515 1.87 832.431 0.338 831.469 -0.625 L 823.19 -8.902 C 820.373 -11.721 815.284 -11.713 812.478 -8.907 L 798.159 5.319 L 801.83 8.99 C 802.872 10.033 802.871 11.722 801.828 12.764 C 800.786 13.806 799.096 13.805 798.054 12.763 L 794.372 9.081 L 731.838 71.198 C 730.423 72.621 729.637 74.551 729.654 76.557 C 729.654 78.608 730.431 80.509 731.838 81.918 L 740.115 90.195 C 741.077 91.158 742.609 91.243 743.672 90.393 C 746.211 88.356 749.129 87.237 751.882 87.237 C 758.803 87.237 764.431 92.865 764.431 99.783 C 764.45 102.766 763.363 105.649 761.379 107.876 C 760.429 108.932 760.472 110.546 761.475 111.55 L 769.752 119.83 C 771.159 121.237 773.063 122.011 775.111 122.011 C 777.159 122.011 779.06 121.237 780.47 119.83 L 842.798 57.501 L 839.175 53.881 C 838.133 52.838 838.133 51.148 839.175 50.105 C 840.218 49.063 841.908 49.063 842.95 50.105 L 846.574 53.726 L 860.722 39.578 C 862.19 38.403 863.104 36.646 863.24 34.726 C 863.389 32.602 862.609 30.518 861.104 29.012 L 861.104 29.012 Z  M 805.53 16.463 C 806.031 15.962 806.71 15.681 807.418 15.681 C 808.126 15.681 808.805 15.962 809.306 16.463 L 813.054 20.212 C 814.097 21.255 814.097 22.945 813.054 23.987 C 812.012 25.03 810.322 25.03 809.279 23.987 L 805.53 20.239 C 805.029 19.738 804.748 19.059 804.748 18.351 C 804.748 17.643 805.029 16.964 805.53 16.463 Z  M 798.874 67.479 L 795.403 83.232 L 787.393 69.078 L 771.373 70.413 L 782.32 58.398 L 775.912 43.446 L 790.597 50.121 L 802.882 39.441 L 800.743 55.998 L 814.627 64.275 L 798.874 67.479 Z  M 824.298 35.231 C 823.798 35.733 823.119 36.016 822.41 36.016 C 821.701 36.016 821.022 35.733 820.522 35.231 L 816.776 31.482 C 815.734 30.44 815.734 28.749 816.776 27.707 C 817.819 26.664 819.509 26.664 820.552 27.707 L 824.298 31.455 C 824.799 31.956 825.081 32.635 825.081 33.343 C 825.081 34.051 824.799 34.73 824.298 35.231 Z  M 835.544 46.477 C 835.044 46.979 834.365 47.262 833.656 47.262 C 832.948 47.262 832.268 46.979 831.768 46.477 L 828.02 42.728 C 826.977 41.686 826.977 39.995 828.02 38.953 C 829.062 37.91 830.753 37.91 831.795 38.953 L 835.544 42.701 C 836.586 43.744 836.586 45.434 835.544 46.477 Z " fill="rgb(255,153,0)" vector-effect="non-scaling-stroke" stroke-width="1" stroke="rgb(0,0,0)" stroke-opacity="0.04" stroke-linejoin="miter" stroke-linecap="butt" stroke-miterlimit="4"/></g></svg>