<?xml version="1.0" encoding="utf-8"?>
<!-- Generator: Adobe Illustrator 16.0.0, SVG Export Plug-In . SVG Version: 6.00 Build 0)  -->
<!DOCTYPE svg PUBLIC "-//W3C//DTD SVG 1.1//EN" "http://www.w3.org/Graphics/SVG/1.1/DTD/svg11.dtd">
<svg version="1.1" id="Layer_1" xmlns="http://www.w3.org/2000/svg" xmlns:xlink="http://www.w3.org/1999/xlink" x="0px" y="0px"
	 width="500px" height="200px" viewBox="0 0 500 200" enable-background="new 0 0 500 200" xml:space="preserve">
<path vector-effect="non-scaling-stroke" fill="#FFFFFF" stroke="#FFFFFF" stroke-opacity="0.04" d="M147.721,63.529l-9.025-9.028
	c-1.048-1.051-2.719-1.142-3.878-0.214c-2.609,2.088-5.525,3.15-8.661,3.15c-7.556-0.01-13.68-6.13-13.686-13.686
	c0-3.139,1.061-6.053,3.149-8.661c0.925-1.16,0.834-2.831-0.214-3.88l-9.028-9.024c-3.074-3.076-8.621-3.067-11.682-0.008
	L79.08,37.692l4.001,4.003c1.137,1.138,1.135,2.979-0.002,4.114c-1.136,1.137-2.978,1.136-4.113,0l-4.016-4.015L6.755,109.532
	c-1.542,1.555-2.402,3.66-2.381,5.848c0,2.233,0.847,4.307,2.381,5.845l9.026,9.025c1.049,1.053,2.719,1.145,3.879,0.215
	c2.77-2.218,5.952-3.439,8.954-3.439c7.546,0,13.685,6.139,13.685,13.685c0.019,3.25-1.165,6.395-3.328,8.822
	c-1.036,1.151-0.99,2.91,0.104,4.005l9.028,9.032c1.533,1.533,3.61,2.377,5.842,2.377c2.234,0,4.308-0.844,5.845-2.377
	l67.969-67.975l-3.951-3.943c-1.135-1.137-1.135-2.982,0-4.122c1.139-1.134,2.979-1.134,4.119,0l3.95,3.95l15.43-15.428
	c1.603-1.281,2.598-3.196,2.747-5.289C150.216,67.444,149.366,65.17,147.721,63.529L147.721,63.529z M87.12,49.844
	c0.544-0.547,1.285-0.853,2.06-0.853c0.769,0,1.511,0.306,2.057,0.853l4.087,4.089c1.137,1.136,1.137,2.979,0,4.115
	c-1.133,1.137-2.981,1.137-4.116,0l-4.088-4.086c-0.547-0.547-0.854-1.29-0.854-2.06C86.264,51.131,86.572,50.391,87.12,49.844z
	 M79.859,105.48l-3.784,17.178l-8.736-15.431l-17.47,1.451l11.939-13.104l-6.991-16.303l16.016,7.278L84.231,74.9l-2.333,18.058
	l15.143,9.027L79.859,105.48z M107.585,70.311c-0.545,0.548-1.287,0.858-2.061,0.858s-1.514-0.31-2.058-0.858l-4.087-4.089
	c-1.136-1.135-1.136-2.979,0-4.116c1.139-1.137,2.982-1.137,4.118,0l4.087,4.089c0.547,0.544,0.853,1.285,0.853,2.057
	C108.439,69.025,108.133,69.762,107.585,70.311z M119.85,82.575c-0.547,0.548-1.288,0.857-2.062,0.857
	c-0.769,0-1.512-0.309-2.056-0.857l-4.089-4.085c-1.138-1.137-1.138-2.982,0-4.119c1.137-1.137,2.983-1.137,4.116,0l4.09,4.087
	C120.986,79.597,120.986,81.436,119.85,82.575z"/>
<path vector-effect="non-scaling-stroke" fill="#FFFFFF" stroke="#FFFFFF" stroke-linecap="square" stroke-miterlimit="3" d="
	M379.415,119.408h10.893l0,0c0,2.904-0.744,5.482-2.232,7.75l0,0l0,0c-1.484,2.27-3.506,4.034-6.059,5.301l0,0l0,0
	c-2.551,1.264-5.4,1.896-8.551,1.896l0,0l0,0c-4.037,0-7.464-0.881-10.277-2.641l0,0l0,0c-2.812-1.763-4.92-4.173-6.318-7.229l0,0
	l0,0c-1.4-3.062-2.102-6.56-2.102-10.505l0,0v-0.928l0,0c0-3.942,0.701-7.449,2.102-10.521l0,0l0,0
	c1.398-3.072,3.5-5.486,6.301-7.245l0,0l0,0c2.801-1.762,6.221-2.644,10.26-2.644l0,0l0,0c3.319,0,6.252,0.638,8.793,1.918l0,0l0,0
	c2.539,1.273,4.52,3.121,5.949,5.535l0,0l0,0c1.422,2.416,2.135,5.273,2.135,8.569l0,0h-10.892l0,0
	c-0.026-1.958-0.577-3.555-1.653-4.794l0,0l0,0c-1.078-1.24-2.608-1.857-4.594-1.857l0,0l0,0c-2.627,0-4.414,0.983-5.371,2.953l0,0
	l0,0c-0.953,1.971-1.43,4.666-1.43,8.086l0,0v0.928l0,0c0,3.496,0.477,6.207,1.43,8.123l0,0l0,0
	c0.957,1.923,2.771,2.885,5.446,2.885l0,0l0,0c1.858,0,3.349-0.503,4.462-1.508l0,0l0,0
	C378.821,122.475,379.39,121.119,379.415,119.408L379.415,119.408z M394.431,113.126L394.431,113.126
	c0-3.938,0.752-7.46,2.252-10.556l0,0l0,0c1.5-3.098,3.694-5.526,6.578-7.285l0,0l0,0c2.889-1.762,6.34-2.645,10.354-2.645l0,0l0,0
	c4.04,0,7.509,0.883,10.408,2.645l0,0l0,0c2.9,1.759,5.102,4.18,6.601,7.264l0,0l0,0c1.499,3.088,2.251,6.612,2.251,10.577l0,0
	v0.781l0,0c0,3.938-0.752,7.46-2.251,10.56l0,0l0,0c-1.499,3.096-3.695,5.521-6.579,7.268l0,0l0,0
	c-2.891,1.746-6.338,2.621-10.354,2.621l0,0l0,0c-4.038,0-7.507-0.875-10.41-2.621l0,0l0,0c-2.898-1.747-5.098-4.165-6.598-7.249
	l0,0l0,0c-1.5-3.089-2.252-6.612-2.252-10.577l0,0V113.126z M406.03,113.907L406.03,113.907c0,3.396,0.604,6.09,1.804,8.086l0,0l0,0
	c1.202,1.995,3.154,2.994,5.855,2.994l0,0l0,0c2.65,0,4.58-1.007,5.782-3.013l0,0l0,0c1.199-2.006,1.805-4.699,1.805-8.067l0,0
	v-0.781l0,0c0-3.319-0.604-6.001-1.805-8.049l0,0l0,0c-1.202-2.043-3.153-3.063-5.856-3.063l0,0l0,0
	c-2.65,0-4.579,1.021-5.781,3.063l0,0l0,0c-1.2,2.048-1.804,4.729-1.804,8.049l0,0V113.907z M484.246,92.641L484.246,92.641
	c4.069,0,7.209,1.217,9.426,3.647l0,0l0,0c2.218,2.429,3.328,6.394,3.328,11.896l0,0v25.426h-11.636v-25.426l0,0
	c0-1.637-0.21-2.906-0.634-3.812l0,0l0,0c-0.422-0.902-1.021-1.521-1.803-1.859l0,0l0,0c-0.78-0.332-1.792-0.498-3.027-0.498l0,0
	l0,0c-1.438,0-2.667,0.347-3.685,1.039l0,0l0,0c-1.015,0.692-1.821,1.66-2.415,2.898l0,0v0.818v26.84h-11.598v-25.352l0,0
	c0-1.662-0.212-2.951-0.63-3.865l0,0l0,0c-0.422-0.918-1.029-1.545-1.826-1.881l0,0l0,0c-0.791-0.334-1.806-0.5-3.046-0.5l0,0l0,0
	c-1.366,0-2.554,0.303-3.573,0.91l0,0l0,0c-1.014,0.604-1.844,1.467-2.486,2.581l0,0v28.105h-11.601V93.385h10.894l0.373,4.571l0,0
	c1.336-1.71,2.974-3.021,4.905-3.938l0,0l0,0c1.938-0.918,4.128-1.377,6.582-1.377l0,0l0,0c2.478,0,4.609,0.502,6.391,1.506l0,0l0,0
	c1.784,1.005,3.161,2.537,4.128,4.592l0,0l0,0c1.313-1.958,2.974-3.465,4.983-4.518l0,0l0,0
	C479.304,93.168,481.621,92.641,484.246,92.641L484.246,92.641z M157.033,124.836L157.033,124.836c1.164,0,2.206-0.085,3.123-0.259
	l0,0v8.737l0,0c-2.033,0.691-4.288,1.039-6.766,1.039l0,0l0,0c-3.889,0-6.87-0.978-8.939-2.937l0,0l0,0
	c-2.07-1.962-3.106-5.045-3.106-9.259l0,0v-20.336h-5.502v-8.438h5.501v-9.963h11.599v9.963h6.729v8.438h-6.729v18.926l0,0
	c0,1.585,0.311,2.661,0.929,3.232l0,0l0,0C154.492,124.553,155.546,124.836,157.033,124.836L157.033,124.836z M171.569,77.066
	L171.569,77.066c1.933,0,3.495,0.553,4.683,1.654l0,0l0,0c1.189,1.104,1.785,2.535,1.785,4.295l0,0l0,0
	c0,1.732-0.596,3.15-1.785,4.254l0,0l0,0c-1.188,1.104-2.75,1.654-4.683,1.654l0,0l0,0c-1.935,0-3.487-0.552-4.667-1.654l0,0l0,0
	c-1.175-1.104-1.764-2.521-1.764-4.254l0,0l0,0c0-1.76,0.589-3.19,1.764-4.295l0,0l0,0
	C168.081,77.619,169.634,77.066,171.569,77.066L171.569,77.066z M177.441,133.609h-11.635V93.387h11.635V133.609z M208.779,119.408
	h10.896l0,0c0,2.904-0.744,5.482-2.232,7.75l0,0l0,0c-1.485,2.27-3.506,4.034-6.061,5.301l0,0l0,0
	c-2.553,1.264-5.402,1.896-8.55,1.896l0,0l0,0c-4.039,0-7.465-0.881-10.279-2.641l0,0l0,0c-2.81-1.763-4.92-4.173-6.32-7.229l0,0
	l0,0c-1.399-3.062-2.099-6.56-2.099-10.505l0,0v-0.928l0,0c0-3.942,0.7-7.449,2.099-10.521l0,0l0,0
	c1.399-3.072,3.502-5.486,6.301-7.245l0,0l0,0c2.8-1.762,6.222-2.644,10.262-2.644l0,0l0,0c3.321,0,6.25,0.638,8.789,1.918l0,0l0,0
	c2.543,1.273,4.524,3.121,5.949,5.535l0,0l0,0c1.425,2.416,2.14,5.273,2.14,8.569l0,0h-10.896l0,0
	c-0.026-1.958-0.575-3.555-1.653-4.794l0,0l0,0c-1.077-1.24-2.608-1.857-4.591-1.857l0,0l0,0c-2.626,0-4.418,0.983-5.372,2.953l0,0
	l0,0c-0.953,1.971-1.431,4.666-1.431,8.086l0,0v0.928l0,0c0,3.496,0.478,6.207,1.431,8.123l0,0l0,0
	c0.953,1.923,2.767,2.885,5.444,2.885l0,0l0,0c1.862,0,3.347-0.503,4.463-1.508l0,0l0,0
	C208.187,122.475,208.753,121.119,208.779,119.408L208.779,119.408z M250.342,133.609l-9.554-15.573l-3.716,3.679v11.896h-11.6
	v-57.14h11.6v30.969l1.672-2.194l9.887-11.856h13.905L248.26,110.08l15.393,23.53L250.342,133.609L250.342,133.609z
	 M302.276,112.346v4.945h-25.242l0,0c0.445,2.381,1.475,4.254,3.085,5.631l0,0l0,0c1.61,1.373,3.669,2.065,6.171,2.065l0,0l0,0
	c1.934,0,3.719-0.349,5.354-1.043l0,0l0,0c1.638-0.693,3.035-1.771,4.201-3.232l0,0l5.465,6.505l0,0
	c-1.414,2.006-3.482,3.698-6.207,5.072l0,0l0,0c-2.727,1.377-5.912,2.064-9.557,2.064l0,0l0,0c-4.139,0-7.744-0.873-10.816-2.62l0,0
	l0,0c-3.073-1.747-5.426-4.109-7.064-7.082l0,0l0,0c-1.634-2.978-2.449-6.246-2.449-9.813l0,0v-1.414l0,0
	c0-3.992,0.756-7.555,2.266-10.688l0,0l0,0c1.514-3.132,3.699-5.599,6.562-7.397l0,0l0,0c2.861-1.795,6.277-2.695,10.242-2.695l0,0
	l0,0c3.791,0,7.038,0.801,9.74,2.399l0,0l0,0c2.698,1.601,4.749,3.88,6.153,6.843l0,0l0,0
	C301.576,104.846,302.276,108.332,302.276,112.346L302.276,112.346z M290.901,109.594v-0.929l0,0c0-2.081-0.564-3.709-1.693-4.887
	l0,0l0,0c-1.127-1.179-2.792-1.767-4.998-1.767l0,0l0,0c-3.939,0-6.32,2.523-7.138,7.582l0,0H290.901L290.901,109.594z
	 M325.659,124.836L325.659,124.836c1.164,0,2.204-0.085,3.121-0.259l0,0v8.737l0,0c-2.031,0.691-4.285,1.039-6.764,1.039l0,0l0,0
	c-3.893,0-6.871-0.978-8.941-2.937l0,0l0,0c-2.068-1.962-3.104-5.045-3.104-9.259l0,0v-20.336h-5.502v-8.438h5.502v-9.963h11.602
	v9.963h6.729v8.438h-6.729v18.926l0,0c0,1.585,0.307,2.661,0.928,3.232l0,0l0,0C323.12,124.553,324.173,124.836,325.659,124.836
	L325.659,124.836z M340.976,121.786L340.976,121.786c1.266,0,2.391,0.271,3.382,0.804l0,0l0,0c0.993,0.528,1.755,1.262,2.288,2.19
	l0,0l0,0c0.533,0.93,0.798,1.978,0.798,3.144l0,0l0,0c0,1.141-0.265,2.174-0.798,3.103l0,0l0,0
	c-0.533,0.931-1.295,1.663-2.288,2.194l0,0l0,0c-0.991,0.53-2.116,0.801-3.382,0.801l0,0l0,0c-1.265,0-2.393-0.271-3.385-0.801l0,0
	l0,0c-0.992-0.531-1.75-1.265-2.283-2.194l0,0l0,0c-0.534-0.929-0.801-1.962-0.801-3.103l0,0l0,0c0-1.166,0.267-2.214,0.801-3.144
	l0,0l0,0c0.533-0.929,1.291-1.662,2.283-2.19l0,0l0,0C338.584,122.057,339.712,121.786,340.976,121.786L340.976,121.786z"/>
</svg>
