<?xml version="1.0" encoding="utf-8"?>
<!-- Generator: Adobe Illustrator 16.0.0, SVG Export Plug-In . SVG Version: 6.00 Build 0)  -->
<!DOCTYPE svg PUBLIC "-//W3C//DTD SVG 1.1//EN" "http://www.w3.org/Graphics/SVG/1.1/DTD/svg11.dtd">
<svg version="1.1" id="Layer_1" xmlns="http://www.w3.org/2000/svg" xmlns:xlink="http://www.w3.org/1999/xlink" x="0px" y="0px"
	 width="40px" height="40px" viewBox="0 0 40 40" enable-background="new 0 0 40 40" xml:space="preserve">
<g id="UCnyId.tif">
	<g>
		<path fill-rule="evenodd" clip-rule="evenodd" fill="#56A8DD" d="M0.479,7.094c0.216-1.255,0.395-2.52,0.66-3.765
			c0.237-1.118,0.612-1.3,1.664-0.979c4.115,1.254,8.345,1.465,12.583,1.118c2.365-0.194,4.698-0.788,7.039-1.233
			c0.794-0.151,1.183,0.234,1.323,0.91c0.232,1.111,0.491,2.23,0.573,3.357c0.34,4.606-0.297,9.042-2.657,13.094
			c-1.667,2.863-3.883,5.143-7.242,5.932c-3.181,0.748-5.949-0.197-8.316-2.356C3.012,20.353,1.531,16.7,0.828,12.669
			c-0.129-0.743-0.233-1.491-0.349-2.237C0.479,9.32,0.479,8.207,0.479,7.094z M7.887,16.427c-0.826,1.611-0.034,4.007,1.693,5.25
			c1.931,1.39,4.635,1.151,6.34-0.504c1.066-1.034,2.001-3.43,1.08-4.711C13.978,18.265,10.96,18.302,7.887,16.427z M7.942,12.573
			c0.024-0.071,0.049-0.141,0.074-0.211c0.319,0,0.64,0.016,0.959-0.003c0.663-0.04,0.959-0.414,0.801-1.05
			c-0.223-0.897-0.767-1.599-1.645-1.89C7.293,9.141,6.454,9.322,5.756,9.892c-0.688,0.562-0.748,1.348-0.006,1.836
			C6.389,12.149,7.204,12.302,7.942,12.573z M16.787,12.555c0.799-0.223,1.543-0.304,2.156-0.631
			c0.958-0.512,0.928-1.57,0.028-2.186c-0.96-0.657-2.306-0.621-3.016,0.251c-0.42,0.517-0.567,1.257-0.836,1.896
			C15.674,12.109,16.231,12.332,16.787,12.555z"/>
		<path fill-rule="evenodd" clip-rule="evenodd" fill="#56A8DD" d="M40,20.971c-0.291,1.566-0.478,3.162-0.895,4.694
			c-0.966,3.54-2.639,6.684-5.69,8.891c-3.822,2.766-8.391,2.418-11.832-0.812c-2.253-2.115-3.648-4.729-4.516-7.532
			c1.485-1.233,2.911-2.417,4.377-3.635c1.869,0.798,3.105,0.419,3.799-1.237c0.366-0.878,0.092-1.341-0.865-1.413
			c-0.404-0.03-0.812-0.004-1.151-0.004c0.629-1.839,1.229-3.651,1.89-5.441c0.067-0.185,0.491-0.328,0.755-0.338
			c2.274-0.084,4.559-0.033,6.822-0.227c1.643-0.14,3.27-0.542,4.882-0.918c1.185-0.275,1.55-0.157,1.797,1.04
			c0.258,1.247,0.422,2.513,0.628,3.77C40,18.863,40,19.917,40,20.971z M32.609,31.675c0.794-1.74-0.051-4.088-1.848-5.308
			c-2-1.358-4.652-1.07-6.315,0.687c-1.286,1.36-1.745,3.555-0.96,4.579C26.516,29.796,29.541,29.825,32.609,31.675z M32.414,19.793
			c-0.011,0.048-0.021,0.095-0.031,0.142c-0.291,0-0.586-0.032-0.873,0.006c-0.748,0.099-0.995,0.499-0.789,1.23
			c0.453,1.607,2.261,2.325,3.701,1.47c1.053-0.624,1.076-1.778-0.021-2.318C33.799,20.025,33.08,19.963,32.414,19.793z"/>
	</g>
</g>
</svg>
